<svg class="svgicon iconbox-tk" xmlns="http://www.w3.org/2000/svg" width="22" height="24" viewBox="0 0 22 24"><path d="M15.7009 8.64174C17.2467 9.74616 19.1404 10.396 21.1856 10.396V6.46246C20.7985 6.46254 20.4124 6.42216 20.0337 6.34196V9.43821C17.9887 9.43821 16.0953 8.78847 14.5492 7.68414V15.7114C14.5492 19.7271 11.2921 22.9822 7.27469 22.9822C5.77568 22.9822 4.38235 22.5292 3.22498 21.7524C4.54597 23.1024 6.38818 23.9398 8.42619 23.9398C12.444 23.9398 15.7011 20.6848 15.7011 16.6689V8.64174H15.7009ZM17.1219 4.6733C16.3319 3.81071 15.8131 2.69595 15.7009 1.46351V0.957603H14.6094C14.8842 2.52398 15.8214 3.86218 17.1219 4.6733ZM5.766 18.6709C5.32464 18.0926 5.08606 17.3849 5.08713 16.6574C5.08713 14.8208 6.57687 13.3317 8.41485 13.3317C8.75732 13.3315 9.09778 13.3841 9.42426 13.4875V9.46602C9.04274 9.4138 8.65775 9.39153 8.27292 9.39973V12.5298C7.94629 12.4263 7.60566 12.3738 7.26302 12.3741C5.42511 12.3741 3.93546 13.8631 3.93546 15.6999C3.93546 16.9987 4.68004 18.1231 5.766 18.6709Z" fill="#FF004F"></path><path d="M14.5492 7.68406C16.0954 8.78839 17.9886 9.43813 20.0338 9.43813V6.34188C18.8922 6.09882 17.8816 5.50262 17.1218 4.6733C15.8213 3.8621 14.8842 2.52389 14.6094 0.957603H11.7424V16.6687C11.7359 18.5004 10.2487 19.9834 8.41471 19.9834C7.33405 19.9834 6.37388 19.4686 5.76586 18.6708C4.68006 18.1231 3.9354 16.9986 3.9354 15.7C3.9354 13.8633 5.42506 12.3742 7.26296 12.3742C7.6151 12.3742 7.95449 12.4289 8.27286 12.5299V9.39981C4.32594 9.48133 1.15173 12.7046 1.15173 16.6688C1.15173 18.6478 1.94216 20.4417 3.22509 21.7525C4.38246 22.5292 5.77571 22.9823 7.2748 22.9823C11.2923 22.9823 14.5493 19.727 14.5493 15.7114V7.68414L14.5492 7.68406Z" fill="white"></path><path d="M20.0338 6.34179V5.50477C19.0044 5.50633 17.9953 5.21819 17.1218 4.6733C17.895 5.51927 18.913 6.10265 20.0338 6.34196V6.34179ZM14.6094 0.957517C14.5832 0.807857 14.5631 0.657195 14.5491 0.505903V0H10.5905V15.7113C10.5842 17.5428 9.09699 19.0258 7.2629 19.0258C6.74295 19.0266 6.2301 18.905 5.76579 18.671C6.37382 19.4686 7.33399 19.9833 8.41465 19.9833C10.2486 19.9833 11.7359 18.5004 11.7424 16.6688V0.9576H14.6094V0.957517ZM8.27305 9.39972V8.5085C7.94226 8.46328 7.60877 8.44066 7.2749 8.4408C3.25697 8.4408 0 11.696 0 15.7113C0 18.2287 1.28003 20.4473 3.22519 21.7524C1.94226 20.4416 1.15183 18.6476 1.15183 16.6687C1.15183 12.7046 4.32596 9.48124 8.27305 9.39972Z" fill="#00F2EA"></path></svg>