<svg class="svgicon iconbox-ig" xmlns="http://www.w3.org/2000/svg" width="28" height="28" viewBox="0 0 533.33 533.33"><linearGradient id="SVGID_1_" gradientUnits="userSpaceOnUse" x1="195.2434" y1="23.8708" x2="244.2413" y2="72.8283" gradientTransform="matrix(9.8882 0 0 -9.88 -1925.7847 763.6563)"><stop offset="0" style="stop-color:#FFD521"></stop><stop offset="0.05" style="stop-color:#FFD521"></stop><stop offset="0.5011" style="stop-color:#F50000"></stop><stop offset="0.95" style="stop-color:#B900B4"></stop> <stop offset="0.9501" style="stop-color:#B900B4"></stop><stop offset="1" style="stop-color:#B900B4"></stop></linearGradient><path fill="url(#SVGID_1_)" d="M441.03,124.33c0-17.73-14.37-32.04-32.02-32.04c-17.66,0-32.04,14.31-32.04,32.04 c0,17.66,14.38,31.97,32.04,31.97C426.66,156.3,441.03,141.99,441.03,124.33"></path><linearGradient id="SVGID_2_" gradientUnits="userSpaceOnUse" x1="233.3351" y1="61.9276" x2="282.3531" y2="110.9456" gradientTransform="matrix(9.8841 0 0 -9.8841 -2301.4929 1140.585)"><stop offset="0" style="stop-color:#FFD521"></stop><stop offset="0.05" style="stop-color:#FFD521"></stop><stop offset="0.5011" style="stop-color:#F50000"></stop><stop offset="0.95" style="stop-color:#B900B4"></stop> <stop offset="0.9501" style="stop-color:#B900B4"></stop><stop offset="1" style="stop-color:#B900B4"></stop></linearGradient><path fill="url(#SVGID_2_)" d="M483.7,374.41c-1.19,26-5.54,40.13-9.15,49.51c-4.85,12.44-10.64,21.34-20.02,30.67 c-9.28,9.33-18.17,15.1-30.62,19.9c-9.38,3.66-23.56,8.03-49.56,9.27c-28.11,1.24-36.44,1.5-107.72,1.5 c-71.22,0-79.61-0.26-107.72-1.5c-26-1.24-40.12-5.6-49.5-9.27c-12.51-4.8-21.34-10.57-30.67-19.9 c-9.4-9.33-15.18-18.23-19.97-30.67c-3.61-9.38-8.03-23.51-9.15-49.51C48.25,346.3,48,337.84,48,266.7 c0-71.28,0.25-79.68,1.62-107.79c1.12-26,5.54-40.12,9.15-49.58c4.78-12.43,10.57-21.27,19.97-30.6 c9.33-9.32,18.16-15.1,30.67-19.95c9.38-3.68,23.5-7.97,49.5-9.21c28.11-1.24,36.51-1.56,107.72-1.56 c71.28,0,79.61,0.32,107.72,1.56c26,1.24,40.18,5.54,49.56,9.21c12.44,4.85,21.34,10.64,30.62,19.95 c9.38,9.33,15.17,18.17,20.02,30.6c3.61,9.46,7.96,23.58,9.15,49.58c1.3,28.11,1.62,36.51,1.62,107.79 C485.32,337.84,485.01,346.3,483.7,374.41L483.7,374.41z M531.71,156.72c-1.3-28.41-5.79-47.83-12.44-64.73 c-6.77-17.54-15.85-32.41-30.72-47.27c-14.8-14.8-29.67-23.88-47.21-30.73c-16.97-6.6-36.32-11.13-64.74-12.37 C348.17,0.25,339.09,0,266.63,0c-72.39,0-81.54,0.25-109.96,1.62c-28.36,1.24-47.69,5.77-64.75,12.36 c-17.48,6.85-32.34,15.93-47.14,30.73C29.92,59.58,20.84,74.45,14,91.99C7.41,108.9,2.93,128.31,1.55,156.72 C0.32,185.15,0,194.24,0,266.7c0,72.39,0.32,81.47,1.55,109.9c1.37,28.36,5.85,47.76,12.44,64.75 c6.84,17.48,15.92,32.41,30.79,47.21c14.8,14.8,29.67,23.95,47.14,30.79c17.05,6.59,36.39,11.07,64.75,12.37 c28.43,1.3,37.57,1.62,109.96,1.62c72.46,0,81.54-0.32,109.96-1.62s47.77-5.79,64.75-12.37c17.54-6.84,32.41-15.99,47.21-30.79 c14.87-14.8,23.95-29.73,30.72-47.21c6.65-16.99,11.14-36.39,12.44-64.75c1.3-28.43,1.62-37.51,1.62-109.9 C533.33,194.24,533.02,185.15,531.71,156.72L531.71,156.72z"></path> <linearGradient id="SVGID_3_" gradientUnits="userSpaceOnUse" x1="220.2714" y1="48.8543" x2="269.2717" y2="97.8664" gradientTransform="matrix(9.8829 0 0 -9.8853 -2171.9878 1011.4365)"> <stop offset="0" style="stop-color:#FFD521"></stop><stop offset="0.05" style="stop-color:#FFD521"></stop><stop offset="0.5011" style="stop-color:#F50000"></stop><stop offset="0.95" style="stop-color:#B900B4"></stop><stop offset="0.9501" style="stop-color:#B900B4"></stop><stop offset="1" style="stop-color:#B900B4"></stop></linearGradient><path fill="url(#SVGID_3_)" d="M266.63,355.51c-49.06,0-88.88-39.75-88.88-88.81c0-49.14,39.81-88.94,88.88-88.94 c49.08,0,88.94,39.8,88.94,88.94C355.58,315.76,315.71,355.51,266.63,355.51z M266.63,129.68c-75.63,0-136.89,61.39-136.89,137.02 c0,75.57,61.25,136.89,136.89,136.89s136.95-61.32,136.95-136.89C403.59,191.07,342.27,129.68,266.63,129.68z"></path></svg>