<svg class="logo" xmlns="http://www.w3.org/2000/svg" width="233" height="31.2" viewBox="0 0 233 31.2"><path d="M15.3,0.5c4.1,0,7.7,1.5,10.7,4.5s4.5,6.6,4.5,11c0,4.3-1.5,7.9-4.4,10.8c-2.9,3-6.5,4.4-10.7,4.4c-4.4,0-8-1.5-10.9-4.6C1.5,23.6,0,20,0,15.8c0-2.8,0.7-5.4,2-7.7c1.4-2.3,3.2-4.2,5.6-5.6C10,1.2,12.5,0.5,15.3,0.5z M15.2,5.9c-2.7,0-5,0.9-6.8,2.8c-1.8,1.9-2.8,4.3-2.8,7.2c0,3.2,1.2,5.8,3.5,7.7c1.8,1.5,3.9,2.2,6.2,2.2c2.6,0,4.9-1,6.7-2.9c1.9-1.9,2.8-4.3,2.8-7.1c0-2.8-0.9-5.1-2.8-7.1C20.1,6.9,17.9,5.9,15.2,5.9z"/><path d="M31.1,1.2h16.2v5.5h-5.3v23.7h-5.6V6.7h-5.2V1.2z"/><path d="M118.8,1.2h5.6l11.2,29.2h-5.8l-2.3-6h-11.9l-2.4,6h-5.8L118.8,1.2z M121.7,9l-3.9,10h7.8L121.7,9z"/><path d="M138.6,1.2h6.6c4.2,0,7.4,0.5,9.5,1.6c2.1,1.1,3.8,2.8,5.1,5.1c1.3,2.4,2,5.1,2,8.3c0,2.3-0.4,4.3-1.1,6.2c-0.7,1.9-1.8,3.5-3.1,4.7c-1.3,1.2-2.7,2.1-4.3,2.6c-1.5,0.5-4.2,0.7-8,0.7h-6.7V1.2z M144.1,6.6V25h2.6c2.5,0,4.4-0.3,5.5-0.9c1.1-0.6,2.1-1.6,2.8-2.9c0.7-1.4,1.1-3.1,1.1-5.1c0-3.1-0.9-5.5-2.6-7.2c-1.6-1.5-4.1-2.3-7.5-2.3H144.1z"/><path d="M193,6l-3.9,3.9c-2.5-2.6-5.4-3.9-8.7-3.9c-2.9,0-5.3,1-7.2,2.9c-1.9,1.9-2.9,4.2-2.9,7c0,2.8,1,5.2,3,7.2c2,2,4.5,2.9,7.5,2.9c1.9,0,3.5-0.4,4.9-1.2s2.4-2.1,3.2-3.8h-8.5v-5.2H195l0,1.2c0,2.6-0.7,5-2,7.3c-1.3,2.3-3,4-5.1,5.2c-2.1,1.2-4.6,1.8-7.4,1.8c-3,0-5.7-0.7-8.1-2c-2.4-1.3-4.3-3.2-5.6-5.6c-1.4-2.4-2.1-5.1-2.1-7.9c0-3.9,1.3-7.2,3.8-10.1c3-3.4,7-5.1,11.8-5.1c2.5,0,4.9,0.5,7.1,1.4C189.4,2.7,191.2,4,193,6z"/><path d="M198,1.2h16v5.4h-10.4v5.3h10.4v5.3h-10.4V25h10.4v5.5h-16V1.2z"/><path d="M216.8,1.2H233v5.5h-5.3v23.7H222V6.7h-5.2V1.2z"/><path d="M108.7,14.6L108.7,14.6c0,0-0.1-0.8-0.8-0.8c-0.8,0-11.1,0-13.7,0c-0.6,0-0.6,0.6-0.6,0.6s0,4,0,4.5c0,0.5,0.5,0.5,0.5,0.5l8,0c-1.6,3.1-4.8,5.3-8.5,5.3c-3,0-5.7-1.4-7.5-3.6l0,0c0,0-0.4-0.6-0.5-0.7L75.8,6.9c-0.2-0.4-0.5-0.7-0.7-1l0-0.1l0,0c-3.1-3.9-8.1-6.3-13.5-5.8c-7,0.7-12.7,6.3-13.5,13.4c-1,9.2,6.2,17,15.1,17c5.5,0,10.2-2.8,12.9-7.2c0.2-0.2,0-0.5,0-0.5l-3.5-4.9c0,0-0.2-0.2-0.3,0c0,0.1,0,0,0,0.1c-1.3,4.3-5.5,7.3-10.3,6.7c-4.3-0.5-7.8-4-8.3-8.4C52.9,10.6,57.4,5.7,63,5.7c3.1,0,5.8,1.4,7.5,3.7l0.5,0.7c0.1,0.1,0.2,0.3,0.3,0.4l10.2,14.1c2.8,3.6,7.1,5.9,12,5.9c8.4,0,15.2-6.8,15.2-15.2C108.7,15,108.7,14.8,108.7,14.6z"/><path d="M93.5,5.7c3.8,0,7,2.1,8.5,5.2c0.2,0.3,0.5,0.3,0.5,0.3l5.2,0c0,0,0.4-0.1,0.3-0.5C106.2,4.4,100.4,0,93.5,0c-5.5,0-10.2,2.7-12.8,7c-0.3,0.4,0,0.8,0,0.8l3.2,4.5c0,0,0.4,0.3,0.6-0.1C85.6,8.2,89.2,5.7,93.5,5.7z"/></svg>